<svg xmlns="http://www.w3.org/2000/svg" xmlns:xlink="http://www.w3.org/1999/xlink" viewBox="0 0 66 60" fill="#fff" fill-rule="evenodd" stroke="#000" stroke-linecap="round" stroke-linejoin="round"><use xlink:href="#A" x=".5" y=".5"/><symbol id="A" overflow="visible"><g stroke="none" fill-rule="nonzero"><path d="M32 4.267c-17.673 0-32 14.327-32 32 0 6.102 1.708 11.8 4.672 16.656l8.36-8.88 42.313.264-.306 14.163C60.587 52.719 64 44.892 64 36.267c0-17.673-14.327-32-32-32" fill="#33a0ff"/><path d="M17.534 13.389a2.85 2.85 0 0 1-2.664-3l.212-3.419a2.85 2.85 0 0 1 2.839-2.668l.169.005 3.417.212a2.82 2.82 0 0 1 2.661 3.017l-.21 3.406a2.07 2.07 0 0 1-.076.438l-.122.595-2.248 1.665z" fill="#3dcc8e"/><path d="M17.921 2.581c-2.407.006-4.398 1.876-4.552 4.278l-.212 3.425a4.57 4.57 0 0 0 4.274 4.818l4.599.28 3.28-2.428.243-1.187a3.74 3.74 0 0 0 .119-.727l.21-3.409c.077-1.218-.327-2.392-1.136-3.306s-1.92-1.455-3.137-1.529l-3.417-.212-.27-.008m2.551 7.448l.126-2.03-2.03-.126-.126 2.03 2.031.125M17.921 6.01l.068.002 3.411.212c.299.016.579.151.777.376s.298.519.276.818l-.21 3.41c-.003.053-.024.099-.034.15l-1.217.901-3.352-.207a1.13 1.13 0 0 1-1.056-1.191l.212-3.412c.036-.595.529-1.058 1.125-1.057" fill="#282828"/><path d="M32 20.854c-13.361 0-24.192 10.831-24.192 24.192-.008 4.78 1.408 9.455 4.067 13.428h41.222c2.17-3.963 3.095-8.655 3.095-13.428 0-12.366-10.831-24.192-24.192-24.192"/><g fill="#282827"><path d="M32 19.137c-14.286 0-25.909 11.623-25.909 25.909-.006 4.736 1.295 9.383 3.758 13.428h4.139c-2.902-3.875-4.468-8.587-4.463-13.428 0-12.393 10.082-22.475 22.475-22.475 5.886 0 11.52 2.464 15.875 6.939 4.194 4.313 6.6 9.976 6.6 15.536 0 3.807-.629 8.98-3.362 13.428h3.92c1.892-3.808 2.88-8.36 2.88-13.428 0-6.446-2.76-12.982-7.572-17.93-5.003-5.145-11.52-7.979-18.338-7.979"/><use xlink:href="#C"/><use xlink:href="#C" x="14.413"/></g><path d="M5.605 51.148l12.891-13.672-3.103 9.728c10.064-7.32 20.63-6.166 28.07-3.981 7.896 2.318 13.425-4.656 8.013-12.095-2.572-3.536-6.099-6.471-10.106-8.252-10.509-4.668-21.075-1.946-28.203 5.254-7.55 7.627-7.562 16.087-7.562 23.019" fill="#ff6f21"/><path d="M30.789 22.279c-1.496 0-2.982.149-4.443.45-4.454.92-8.589 3.2-11.959 6.6-5.597 5.654-6.76 11.722-7.002 17.42l15.041-15.952-3.982 12.483c7.483-3.912 16.04-4.491 25.502-1.713 3.011.88 5.74.214 7.123-1.748 1.42-2.016 1.053-4.891-.982-7.689-2.432-3.344-5.776-6.08-9.415-7.692-3.227-1.434-6.58-2.161-9.88-2.161M3.892 55.465v-4.32c0-7.167 0-16.086 8.058-24.227 3.848-3.887 8.588-6.498 13.708-7.551 5.39-1.109 11.065-.439 16.413 1.936 4.181 1.858 8.016 4.987 10.798 8.81 2.897 3.983 3.285 8.462 1.012 11.687-2.222 3.154-6.499 4.357-10.898 3.066-10.146-2.979-19.087-1.727-26.575 3.722l-4.24 3.085 2.402-7.53z" fill="#282827"/><path d="M38.175 19.566c-1.528 3.982-5.96 6.206-10.067 5.05-4.626-1.303-7.069-5.021-6.483-9.737.584-4.69 3.753-8.802 7.406-13.871-3.001 6.388-.452 6.986.355 6.954.797-.032 1.96.104 3.616.654a8.37 8.37 0 0 1 5.173 10.95" fill="#ff6f21"/><path d="M26.332 7.853c-1.585 2.485-2.698 4.794-3.002 7.238-.481 3.869 1.479 6.812 5.24 7.872 3.269.92 6.782-.842 7.998-4.012a6.6 6.6 0 0 0-.194-5.236 6.59 6.59 0 0 0-3.918-3.469c-1.528-.507-2.479-.588-3.006-.568-1.184.046-2.28-.505-2.92-1.48a3.45 3.45 0 0 1-.204-.349m3.991 18.785c-.906 0-1.807-.124-2.679-.37-2.666-.751-4.797-2.235-6.162-4.292-1.36-2.05-1.9-4.578-1.56-7.31.6-4.823 3.572-8.932 7.014-13.689L27.635 0l2.947 1.734c-1.454 3.096-1.288 4.243-1.211 4.504 1.17-.04 2.572.214 4.168.743 2.621.859 4.77 2.762 5.94 5.26a10.01 10.01 0 0 1 .296 7.936c-1.515 3.948-5.378 6.457-9.456 6.457" fill="#282827"/><path d="M33.837 34.775a1.99 1.99 0 0 1-1.544-.733l-1.155-1.415c-.666-.816-.578-2.01.2-2.72-.253-.124-.477-.302-.655-.521l-.264-.323a1.99 1.99 0 0 1 .282-2.797l.166-.136-1.692-2.077c-.752-.925-.614-2.284.308-3.039a2.17 2.17 0 0 1 1.367-.488c.65 0 1.26.289 1.673.793l7.217 8.883c.751.925.612 2.283-.309 3.038-.257.209-.558.357-.88.432-.159.037-.323.055-.487.055-.557.001-1.092-.214-1.494-.599l-1.472 1.202a2 2 0 0 1-1.26.449" fill="#3dcc8e"/><path d="M33.609 20.425c-.68-.831-1.686-1.308-2.76-1.308-.82.001-1.615.284-2.252.802-1.524 1.246-1.752 3.491-.51 5.019l.94 1.154c-.69 1.187-.616 2.73.303 3.855l.177.217c-.416 1.096-.252 2.38.542 3.352l1.155 1.415c.644.792 1.611 1.251 2.632 1.249a3.41 3.41 0 0 0 2.149-.766l.692-.565a3.57 3.57 0 0 0 1.386.279c.27 0 .539-.031.802-.092a3.58 3.58 0 0 0 1.453-.712c1.521-1.247 1.748-3.49.507-5.016l-7.21-8.874zm-2.76 1.502a.75.75 0 0 1 .586.278l7.214 8.878c.264.323.216.8-.108 1.064a.75.75 0 0 1-.308.151c-.056.013-.113.02-.17.02a.75.75 0 0 1-.586-.278l-.718-.885-2.551 2.082c-.105.086-.236.133-.372.133a.59.59 0 0 1-.456-.216l-1.155-1.415a.58.58 0 0 1 .083-.818l2.563-2.092-1.047-1.291-1.268 1.04a.56.56 0 0 1-.353.126c-.167 0-.326-.075-.432-.205l-.264-.32c-.2-.249-.167-.616.082-.82l1.253-1.023-2.579-3.165c-.185-.226-.222-.539-.097-.802s.391-.432.683-.432" fill="#282828"/></g></symbol><defs ><path id="C" d="M27.12 52.069c-.001 1.282-1.04 2.322-2.322 2.322s-2.322-1.04-2.322-2.322 1.04-2.322 2.322-2.322 2.321 1.04 2.322 2.322"/></defs></svg>